<?xml version="1.0" standalone="no"?>
<!DOCTYPE svg PUBLIC "-//W3C//DTD SVG 20010904//EN"
 "http://www.w3.org/TR/2001/REC-SVG-20010904/DTD/svg10.dtd">
<svg version="1.0" xmlns="http://www.w3.org/2000/svg"
 width="464.000000pt" height="526.000000pt" viewBox="0 0 464.000000 526.000000"
 preserveAspectRatio="xMidYMid meet">

<g transform="translate(0.000000,526.000000) scale(0.100000,-0.100000)"
fill="#000000" stroke="none">
<path d="M3460 5232 c-48 -24 -75 -69 -110 -186 -53 -175 -110 -335 -160 -445
-26 -58 -53 -133 -60 -166 -20 -91 -20 -91 -71 -53 -61 47 -115 130 -135 207
-13 54 -15 95 -10 240 8 199 1 228 -62 264 -72 42 -221 15 -292 -52 -58 -55
-66 -98 -46 -256 33 -271 14 -408 -86 -600 -61 -119 -62 -121 -61 -202 0 -69
5 -91 31 -147 17 -36 58 -102 92 -146 33 -44 71 -102 84 -129 l22 -49 147 84
c80 46 156 84 168 84 19 0 21 4 15 33 -18 91 -117 224 -214 286 -26 16 -74 40
-107 53 -35 13 -53 24 -42 26 25 5 139 -51 195 -95 26 -20 64 -57 85 -81 20
-24 37 -41 37 -37 0 3 -40 108 -89 233 -124 314 -157 439 -181 681 -13 133
-13 214 0 206 6 -3 10 -41 10 -84 0 -126 36 -369 73 -491 l13 -45 17 31 c22
42 90 102 124 110 16 3 34 7 41 10 6 2 12 0 12 -5 0 -4 -18 -13 -40 -20 -21
-6 -53 -23 -70 -38 -33 -27 -70 -91 -70 -119 0 -9 34 -103 76 -208 42 -105 95
-248 117 -317 39 -121 42 -126 80 -147 l39 -21 34 26 c19 14 37 23 40 21 3 -3
-6 -15 -20 -26 -15 -11 -26 -24 -26 -29 0 -5 64 -46 143 -92 78 -46 157 -93
175 -103 48 -29 39 -16 -21 31 l-54 41 24 102 c32 144 62 327 69 424 7 81 6
84 -26 133 -17 28 -57 73 -87 101 -31 28 -53 54 -49 57 10 10 77 -48 126 -110
l45 -56 3 92 c2 51 -1 227 -8 392 -15 371 -7 438 63 503 14 13 42 26 64 29 48
6 142 -28 187 -68 67 -58 111 -206 123 -409 7 -123 -2 -215 -63 -645 -41 -284
-45 -335 -42 -450 3 -83 12 -155 24 -200 l19 -70 9 70 c4 39 10 72 12 74 1 2
16 -6 33 -18 30 -22 30 -22 29 -120 0 -107 3 -121 32 -121 10 0 32 -12 49 -26
25 -21 31 -33 31 -66 0 -21 -5 -48 -10 -59 -9 -16 -3 -27 37 -70 134 -143 249
-111 374 102 91 157 116 298 69 395 -50 102 -144 164 -282 185 -73 12 -168 5
-220 -16 -13 -5 -18 -2 -18 11 0 11 -9 93 -20 184 -27 227 -26 346 6 527 52
295 22 595 -71 717 -90 119 -271 181 -375 128z"/>
<path d="M2610 3346 c-118 -68 -314 -181 -435 -250 -121 -70 -228 -136 -237
-148 -16 -18 -18 -48 -18 -299 0 -231 2 -281 14 -285 8 -3 137 65 288 152 150
86 347 199 438 251 90 52 170 102 177 111 16 21 14 583 -2 589 -5 1 -107 -53
-225 -121z m200 -191 l0 -264 -112 -66 c-62 -36 -252 -146 -423 -245 l-310
-179 -8 197 c-10 276 -7 334 18 347 42 22 185 104 635 366 102 59 188 108 193
108 4 1 7 -118 7 -264z"/>
<path d="M3427 3409 c7 -7 15 -10 18 -7 3 3 -2 9 -12 12 -14 6 -15 5 -6 -5z"/>
<path d="M3209 2877 c-28 -19 -34 -29 -34 -57 0 -31 5 -37 45 -57 58 -30 85
-31 70 -3 -9 18 -8 20 16 20 26 0 26 1 11 18 -10 10 -17 29 -17 42 0 13 7 32
17 42 15 17 14 18 -29 18 -30 0 -56 -7 -79 -23z"/>
<path d="M2824 2816 c-18 -14 -18 -15 5 -24 21 -8 22 -9 6 -15 -15 -6 -15 -10
-4 -24 13 -15 12 -15 -8 -2 -16 9 -19 16 -10 21 9 6 8 10 -3 18 -10 6 -21 5
-35 -4 -23 -15 -22 -32 1 -29 12 1 11 -4 -5 -18 -11 -10 -26 -19 -32 -19 -7 0
-4 6 7 14 17 13 17 15 2 21 -18 7 -58 -10 -58 -25 0 -6 7 -10 16 -10 13 0 14
-3 5 -13 -8 -10 -7 -17 2 -26 10 -11 8 -11 -10 0 -11 7 -19 19 -16 26 7 18
-28 17 -53 -1 -18 -14 -18 -15 6 -25 14 -5 19 -10 13 -10 -21 -1 -15 -17 12
-31 39 -21 23 -22 -18 -1 -21 11 -32 21 -25 24 10 3 10 8 2 16 -8 9 -17 9 -37
0 -38 -17 -33 -37 7 -30 5 1 4 -4 -2 -12 -9 -10 -9 -17 1 -26 10 -11 8 -11
-11 -2 -12 7 -20 16 -17 22 10 15 -21 22 -44 9 -23 -12 -28 -30 -8 -30 7 0 13
-8 13 -19 0 -13 -6 -17 -19 -13 -14 4 -16 7 -6 13 23 14 -19 23 -47 10 -29
-13 -22 -35 10 -27 19 5 19 4 4 -8 -10 -7 -17 -15 -15 -17 1 -2 -5 4 -14 14
-13 16 -19 17 -42 6 -31 -14 -34 -24 -11 -33 16 -6 11 -26 -7 -26 -6 0 -7 5
-4 10 10 16 -21 23 -44 10 -24 -12 -28 -30 -8 -30 8 0 14 -7 14 -15 0 -13 -3
-12 -19 2 -14 13 -25 14 -45 7 -31 -10 -32 -29 -2 -28 18 1 18 -1 5 -15 -14
-14 -17 -13 -29 3 -11 15 -17 16 -40 5 -37 -17 -33 -37 6 -30 5 1 6 -3 2 -8
-3 -6 7 -17 22 -25 15 -8 23 -15 18 -16 -6 0 -21 7 -33 16 -12 8 -27 12 -32 9
-6 -4 -9 -1 -8 6 5 22 -30 21 -51 0 -12 -12 -24 -21 -28 -21 -5 0 -16 -3 -26
-6 -22 -7 -16 -30 7 -27 10 0 15 -2 12 -5 -3 -3 0 -12 7 -20 10 -13 9 -14 -10
-3 -13 6 -23 8 -23 4 0 -4 -6 1 -13 11 -11 15 -17 16 -40 5 -27 -12 -37 -29
-17 -29 6 0 12 0 15 0 3 0 14 -9 25 -20 11 -11 26 -20 34 -20 7 0 19 -7 26
-15 7 -8 19 -15 28 -15 8 0 20 -6 26 -14 6 -7 37 -28 70 -45 55 -30 60 -31 77
-15 10 9 17 19 15 23 -2 3 15 7 38 8 22 2 42 7 44 12 2 6 12 6 27 -1 18 -8 28
-7 45 5 21 14 21 15 -12 36 -18 11 -29 21 -24 21 6 0 1 7 -10 16 -18 14 -18
15 4 4 12 -6 22 -15 22 -19 0 -5 11 -16 25 -25 24 -16 27 -16 55 1 17 10 28
23 26 30 -3 7 1 10 10 6 19 -7 305 157 297 170 -3 6 -1 7 5 3 12 -7 72 22 72
34 0 13 -49 33 -64 27 -9 -4 -16 -3 -16 2 0 4 -11 14 -25 21 -16 9 -21 16 -14
21 6 4 9 12 5 18 -5 7 -1 9 9 5 12 -5 13 -10 5 -19 -9 -10 -6 -16 10 -25 12
-6 26 -9 33 -7 7 2 23 -4 36 -14 13 -11 31 -19 40 -19 22 1 52 25 43 35 -4 5
-1 5 5 1 17 -10 56 13 50 29 -4 8 1 11 13 8 10 -3 30 2 44 11 14 9 38 23 52
32 20 12 23 18 14 24 -18 11 -62 -10 -56 -27 4 -10 -2 -9 -26 3 l-31 16 26 16
c15 9 27 19 27 22 0 12 -103 61 -116 56 -7 -3 -11 0 -9 7 4 12 -116 87 -139
87 -7 0 -21 -6 -32 -14z m91 -76 c3 -6 -1 -7 -9 -4 -18 7 -21 14 -7 14 6 0 13
-4 16 -10z m-57 -19 c-7 -11 -16 -18 -20 -15 -4 3 -2 11 5 19 18 21 29 18 15
-4z m78 -22 c-13 -10 -28 -19 -32 -19 -5 0 2 7 14 16 12 8 20 20 17 25 -3 5 1
6 9 3 13 -5 12 -9 -8 -25z m-138 -10 c-6 -4 -8 -12 -4 -18 5 -7 1 -9 -9 -5
-11 5 -12 10 -5 18 6 9 6 17 -3 25 -9 10 -7 10 10 0 14 -8 18 -16 11 -20z m83
-22 c-10 -9 -11 -8 -5 6 3 10 9 15 12 12 3 -3 0 -11 -7 -18z m-143 -16 c-7
-11 -16 -18 -20 -15 -4 3 -2 11 5 19 18 21 29 18 15 -4z m82 -18 c-11 -8 -18
-19 -15 -24 3 -5 -1 -6 -10 -3 -14 6 -13 8 5 21 11 8 18 19 15 24 -3 5 1 6 10
3 14 -6 13 -8 -5 -21z m50 12 c11 -13 10 -14 -4 -9 -9 3 -16 10 -16 15 0 13 6
11 20 -6z m91 2 c-6 -8 -8 -17 -4 -21 4 -4 0 -4 -10 0 -17 6 -17 7 0 20 23 17
28 18 14 1z m-191 -39 c0 -6 -6 -5 -15 2 -8 7 -15 14 -15 16 0 2 7 1 15 -2 8
-4 15 -11 15 -16z m131 0 c-11 -10 -23 -18 -26 -18 -3 0 0 8 6 18 7 10 18 19
25 19 10 0 8 -6 -5 -19z m132 -6 c5 -8 7 -15 5 -16 -49 -33 -56 -35 -74 -21
-18 13 -18 14 -1 21 10 3 16 12 14 18 -7 16 46 14 56 -2z m-403 -6 c0 -3 -4
-8 -10 -11 -5 -3 -10 -1 -10 4 0 6 5 11 10 11 6 0 10 -2 10 -4z m88 -21 c2 -1
-5 -6 -15 -9 -9 -4 -14 -4 -10 0 4 4 -1 13 -11 21 -15 12 -14 13 8 2 14 -6 26
-13 28 -14z m25 10 c-3 -9 -8 -14 -10 -11 -3 3 -2 9 2 15 9 16 15 13 8 -4z
m197 -19 c0 -2 -8 -7 -17 -10 -10 -4 -14 -4 -10 0 4 4 1 14 -6 22 -10 13 -9
14 11 3 12 -6 22 -13 22 -15z m-387 -22 c-10 -7 -22 -13 -28 -13 -5 0 -2 4 8
10 9 6 15 14 12 20 -3 5 1 6 10 3 14 -6 14 -8 -2 -20z m88 -1 c13 -16 12 -17
-3 -4 -17 13 -22 21 -14 21 2 0 10 -8 17 -17z m42 3 c4 -10 1 -13 -8 -9 -8 3
-12 9 -9 14 7 12 11 11 17 -5z m96 -7 c-15 -9 -15 -8 19 -31 19 -13 20 -16 7
-22 -10 -3 -14 -2 -10 5 4 5 -6 15 -22 21 -28 10 -29 12 -14 28 9 9 20 15 25
12 4 -2 2 -8 -5 -13z m-284 -17 c-3 -3 -11 0 -18 7 -9 10 -8 11 6 5 10 -3 15
-9 12 -12z m128 -7 c-3 -9 -8 -14 -10 -11 -3 3 -2 9 2 15 9 16 15 13 8 -4z
m107 0 c0 -12 -19 -12 -23 0 -4 9 -1 12 9 8 7 -3 14 -7 14 -8z m-200 -51 c0
-3 -13 4 -30 16 -16 12 -30 24 -30 26 0 3 14 -4 30 -16 17 -12 30 -24 30 -26z
m70 42 c0 -2 -7 -7 -16 -10 -8 -3 -12 -2 -9 4 6 10 25 14 25 6z m56 -39 c-1
-17 -6 -23 -18 -19 -15 4 -15 5 0 22 10 10 18 19 18 19 1 1 1 -10 0 -22z m-74
-7 c18 -11 29 -20 23 -20 -5 0 -23 9 -40 20 -39 26 -25 26 17 0z m198 15 c0
-2 -9 -9 -20 -15 -12 -6 -20 -7 -20 -1 0 5 8 12 18 14 9 3 18 5 20 6 1 0 2 -1
2 -4z m-405 -23 c-3 -3 -11 0 -18 7 -9 10 -8 11 6 5 10 -3 15 -9 12 -12z m64
2 c18 -13 28 -14 48 -5 17 8 22 8 18 0 -4 -6 3 -17 14 -26 17 -12 20 -18 10
-29 -6 -8 -16 -14 -22 -14 -6 0 -3 6 7 13 17 13 17 14 -6 29 -17 11 -29 13
-41 6 -11 -6 -17 -5 -17 1 0 6 -12 17 -27 25 -16 8 -23 15 -18 16 6 0 21 -7
34 -16z m-119 -40 c0 -2 -9 0 -20 6 -11 6 -20 13 -20 16 0 2 9 0 20 -6 11 -6
20 -13 20 -16z m50 11 c11 -13 10 -14 -4 -9 -9 3 -16 10 -16 15 0 13 6 11 20
-6z m330 0 c0 -2 -6 -5 -13 -8 -8 -3 -14 1 -14 8 0 7 6 11 14 8 7 -3 13 -6 13
-8z m-260 -10 c0 -2 -13 -11 -30 -20 -26 -13 -29 -13 -24 0 3 8 9 13 13 11 4
-3 13 -1 21 5 17 10 20 11 20 4z m-135 -25 c3 -6 -1 -7 -9 -4 -18 7 -21 14 -7
14 6 0 13 -4 16 -10z m335 6 c0 -3 -4 -8 -10 -11 -5 -3 -10 -1 -10 4 0 6 5 11
10 11 6 0 10 -2 10 -4z m-490 -16 c0 -5 -4 -10 -10 -10 -5 0 -10 5 -10 10 0 6
5 10 10 10 6 0 10 -4 10 -10z m248 -29 l27 -22 -28 17 c-15 9 -36 14 -46 11
-11 -3 -22 0 -24 7 -8 20 42 11 71 -13z m79 18 c-9 -6 -14 -15 -11 -21 4 -7 2
-8 -5 -4 -14 9 3 36 23 36 6 0 3 -5 -7 -11z m-283 -28 c-2 -3 -12 3 -22 13
-16 17 -16 18 5 5 12 -7 20 -15 17 -18z m396 22 c0 -1 -8 -7 -18 -12 -13 -7
-19 -6 -19 2 0 7 9 13 19 13 10 0 18 -1 18 -3z m-273 -20 c-4 -3 1 -12 11 -20
15 -13 15 -13 -5 -3 -16 8 -29 8 -43 0 -16 -9 -18 -8 -14 5 3 8 9 13 13 11 4
-3 13 -1 21 5 17 10 26 12 17 2z m-132 -23 c3 -6 -1 -7 -9 -4 -18 7 -21 14 -7
14 6 0 13 -4 16 -10z m335 0 c0 -5 -4 -10 -10 -10 -5 0 -10 5 -10 10 0 6 5 10
10 10 6 0 10 -4 10 -10z m-260 -26 c5 -5 -2 -9 -20 -9 -17 0 -32 5 -34 10 -5
13 41 12 54 -1z m97 5 c-9 -6 -14 -15 -11 -21 4 -7 2 -8 -5 -4 -14 9 3 36 23
36 6 0 3 -5 -7 -11z m36 -55 c-3 -8 -6 -14 -7 -12 -1 2 -7 11 -14 20 -11 14
-10 16 7 11 12 -3 17 -11 14 -19z"/>
<path d="M4200 2802 c-18 -18 -37 -58 -53 -108 -14 -43 -39 -116 -56 -161 -54
-147 -58 -259 -20 -567 31 -251 34 -334 12 -376 -27 -52 -62 -52 -181 3 -126
59 -136 61 -156 41 -16 -15 -17 -7 -11 111 l5 127 67 102 c135 205 210 346
198 367 -11 17 -52 -16 -167 -132 l-108 -108 0 -70 0 -71 -40 21 c-63 33 -107
34 -170 6 -67 -30 -95 -59 -120 -123 -11 -29 -24 -48 -32 -46 -116 30 -162 26
-229 -17 -69 -44 -83 -81 -76 -210 7 -125 61 -390 111 -547 43 -133 89 -304
84 -309 -2 -3 -36 -7 -76 -9 -83 -7 -159 -38 -175 -73 -15 -34 20 -67 119
-114 100 -47 187 -69 282 -69 101 0 137 17 145 66 4 22 4 63 0 92 -3 28 -3 52
1 52 4 0 32 -9 64 -19 87 -29 161 -36 204 -18 l35 15 7 101 c4 55 4 110 1 122
-6 19 -4 21 17 16 13 -4 47 -11 75 -17 l52 -11 -18 -47 c-66 -168 -172 -474
-167 -479 13 -13 27 18 115 261 49 137 94 253 99 258 6 6 20 7 32 3 21 -7 22
-10 16 -86 -5 -53 -4 -79 3 -79 12 0 17 21 25 99 3 29 7 55 8 56 2 2 25 5 53
6 l50 3 76 -272 c42 -150 80 -276 83 -279 23 -24 10 41 -57 279 -42 150 -75
274 -73 275 2 2 30 10 62 19 133 34 245 107 285 185 15 30 19 59 19 134 0 96
-10 135 -47 177 -24 27 -35 96 -23 134 10 29 7 50 -24 155 -49 167 -62 300
-48 471 7 73 21 171 33 218 45 177 22 299 -75 395 -80 79 -183 100 -236 47z
m-669 -1701 c21 -89 41 -166 45 -172 4 -7 -4 -9 -21 -7 -26 3 -28 9 -60 133
-18 72 -40 153 -49 180 -21 68 -21 70 16 47 30 -19 33 -28 69 -181z"/>
<path d="M3567 2779 c-24 -14 -47 -62 -47 -101 0 -69 7 -76 118 -128 58 -28
108 -50 111 -50 3 0 19 20 34 44 15 25 46 61 68 81 23 20 39 38 37 39 -1 1
-32 13 -68 26 -36 12 -100 40 -142 61 -85 43 -85 43 -111 28z"/>
<path d="M1340 2270 c-17 -11 -27 -3 105 -80 61 -35 190 -111 288 -169 l178
-104 -63 -37 c-187 -109 -363 -213 -367 -216 -2 -1 30 -20 71 -40 l74 -37 212
132 c116 73 221 140 233 150 25 20 65 -4 -451 269 -140 74 -257 136 -260 137
-3 2 -12 0 -20 -5z"/>
</g>
</svg>
